<svg height="224pt" preserveAspectRatio="xMidYMid meet" viewBox="0 0 224 224" width="224pt" xmlns="http://www.w3.org/2000/svg"><path d="m498 2070c-185-32-359-165-438-335-49-104-60-159-55-280 4-122 30-218 92-343 44-90 142-237 208-312 176-202 471-440 742-599l72-42 48 26c94 52 330 214 438 301 178 144 349 322 452 474 237 349 240 705 9 935-127 126-264 180-456 180-176-1-327-80-457-240l-33-40-22 30c-88 117-224 208-355 238-67 16-177 19-245 7zm342-200c85-25 151-67 223-142l58-61 45 51c97 111 231 172 378 172 282 0 503-206 507-473 4-279-216-588-631-884-95-68-284-183-300-183-21 0-250 144-360 226-410 309-611 633-566 916 32 201 218 371 434 396 84 10 130 6 212-18z" transform="matrix(.1 0 0 -.1 0 224)"/></svg>