<?xml version="1.0" encoding="UTF-8" standalone="no"?>
<!DOCTYPE svg PUBLIC "-//W3C//DTD SVG 1.1//EN" "http://www.w3.org/Graphics/SVG/1.1/DTD/svg11.dtd">
<svg width="100%" height="100%" viewBox="0 0 1292 530" version="1.1" xmlns="http://www.w3.org/2000/svg" xmlns:xlink="http://www.w3.org/1999/xlink" xml:space="preserve" xmlns:serif="http://www.serif.com/" style="fill-rule:evenodd;clip-rule:evenodd;stroke-linejoin:round;stroke-miterlimit:2;">
    <g transform="matrix(4.16667,0,0,4.16667,0,0)">
        <path d="M64.05,124.211C38.064,116.279 19.16,92.264 19.16,63.872C19.16,35.168 38.463,10.944 64.894,3.277C67.598,2.488 66.885,0.735 63.63,0.735C28.495,0.735 0,29.016 0,63.872C0,98.727 28.495,127 63.63,127C66.885,127 67.017,125.119 64.05,124.211Z" style="fill:white;fill-rule:nonzero;"/>
        <path d="M31.212,78.659C31.038,76.962 30.952,75.25 30.952,73.517C30.952,45.837 53.397,23.402 81.08,23.402C107.251,23.402 115.11,35.083 116.084,34.321C117.146,33.479 106.588,10.325 75.851,10.325C48.165,10.325 25.723,32.759 25.723,60.439C25.723,66.843 26.921,72.949 29.106,78.567C30.027,80.923 31.447,80.943 31.212,78.659Z" style="fill:white;fill-rule:nonzero;"/>
        <path d="M52.209,42.538C65.236,36.858 81.601,36.686 97.692,42.311C108.496,46.08 114.761,51.463 115.272,51.239C116.127,50.873 108.988,39.564 96.101,34.679C80.502,28.768 63.698,31.86 51.453,41.462C50.106,42.522 50.614,43.235 52.209,42.538Z" style="fill:white;fill-rule:nonzero;"/>
        <path d="M309.768,66.113C309.768,69.751 306.817,72.691 303.193,72.691C299.556,72.691 296.611,69.751 296.611,66.113C296.611,62.486 299.556,59.542 303.193,59.542C306.817,59.542 309.768,62.486 309.768,66.113Z" style="fill:white;fill-rule:nonzero;"/>
        <path d="M94.289,93.126L81.594,93.126L92.519,70.98L92.645,70.98L94.289,93.126ZM94.902,103.086L95.678,111.869L109.587,111.869L104.904,60.755L84.191,60.755L58.004,111.869L72.174,111.869L76.57,103.086L94.902,103.086Z" style="fill:white;fill-rule:nonzero;"/>
        <path d="M128.979,89.519L131.015,89.519L140.97,76.083L153.859,76.083L140.105,93.266L148.545,111.868L134.857,111.868L129.36,97.345L127.312,97.345L124.219,111.868L112.511,111.868L123.364,60.754L135.091,60.754L128.979,89.519Z" style="fill:white;fill-rule:nonzero;"/>
        <path d="M168.861,97.08C172.684,97.08 175.202,97.343 174.572,100.347C173.764,104.093 172.149,104.714 167.241,104.714C165.455,104.714 162.135,104.714 162.953,100.828C163.653,97.542 165.986,97.08 168.861,97.08ZM172.129,111.869L183.847,111.869L188.597,89.521C191.201,77.176 186.48,75.674 174.496,75.674C166.125,75.674 158.028,75.605 155.655,86.718L167.39,86.718C168.053,83.507 170.04,82.843 172.978,82.843C178.074,82.843 177.85,84.96 177.13,88.28L175.938,93.951L175.394,93.951C174.951,89.858 169.822,89.917 166.495,89.917C158.035,89.917 152.995,92.578 151.15,101.175C149.223,110.295 153.563,112.275 161.738,112.275C165.835,112.275 171.317,111.467 173.252,106.539L173.654,106.539L172.129,111.869Z" style="fill:white;fill-rule:nonzero;"/>
        <path d="M207.502,76.083L206.43,81.126L206.908,81.126C209.231,76.902 213.862,75.677 217.88,75.677C222.927,75.677 227.907,76.555 227.214,82.698L227.762,82.698C229.481,77.594 234.706,75.677 239.205,75.677C247.464,75.677 250.959,79.086 249.193,87.415L243.979,111.869L232.268,111.869L236.674,91.144C237.248,87.415 237.918,84.674 233.344,84.674C228.792,84.674 227.254,87.714 226.441,91.55L222.114,111.869L210.396,111.869L215.005,90.197C215.569,86.919 215.837,84.674 211.747,84.674C206.908,84.674 205.473,87.266 204.581,91.55L200.244,111.869L188.52,111.869L196.145,76.083L207.502,76.083Z" style="fill:white;fill-rule:nonzero;"/>
        <path d="M267.642,97.08C271.438,97.08 273.976,97.343 273.349,100.347C272.56,104.093 270.929,104.714 266.008,104.714C264.235,104.714 260.898,104.714 261.724,100.828C262.427,97.542 264.767,97.08 267.642,97.08ZM270.89,111.869L282.607,111.869L287.36,89.521C289.978,77.176 285.271,75.674 273.282,75.674C264.879,75.674 256.772,75.605 254.436,86.718L266.163,86.718C266.826,83.507 268.833,82.843 271.731,82.843C276.854,82.843 276.6,84.96 275.927,88.28L274.702,93.951L274.157,93.951C273.718,89.858 268.596,89.917 265.269,89.917C256.815,89.917 251.752,92.578 249.93,101.175C247.996,110.295 252.34,112.275 260.515,112.275C264.608,112.275 270.091,111.467 272.031,106.539L272.435,106.539L270.89,111.869Z" style="fill:white;fill-rule:nonzero;"/>
        <path d="M299.498,111.868L287.797,111.868L295.379,76.083L307.109,76.083L299.498,111.868Z" style="fill:white;fill-rule:nonzero;"/>
    </g>
</svg>
