<svg viewBox="0 0 506.94 131.85" xmlns="http://www.w3.org/2000/svg"><g fill="#fff"><path d="m151.61 14.68 16.58-4v79.88q0 13.13 7.83 15.65-3.84 7.31-13.13 7.3-11.28 0-11.28-15.66z"/><path d="m186.66 112.16v-57.42h-9.08v-13.6h25.86v71zm8.56-98.54a9.62 9.62 0 1 1 -9.62 9.62 9.63 9.63 0 0 1 9.62-9.62z"/><path d="m262.94 112.18v-41.06c0-6.05-1.16-10.48-3.48-13.26s-6.11-4.18-11.37-4.18a17.6 17.6 0 0 0 -7.8 2.06 17.85 17.85 0 0 0 -6.46 5.1v51.34h-16.59v-71h11.94l3 6.64q6.76-8 20-8 12.66 0 20 7.59t7.33 21.19v43.58z"/><path d="m288.42 76.5q0-16.26 9.38-26.47t24.77-10.21q16.19 0 25.14 9.82t9 26.86q0 17-9.12 27t-25 10q-16.18 0-25.17-10.12t-9-26.88zm17.24 0q0 23.48 16.91 23.48a14.54 14.54 0 0 0 12.31-6.11q4.55-6.09 4.54-17.37 0-23.14-16.85-23.15a14.61 14.61 0 0 0 -12.33 6.09q-4.58 6.11-4.58 17.06z"/><path d="m412.37 112.18v-4.31c-1.37 1.5-3.71 2.82-7 3.95a31.33 31.33 0 0 1 -10.15 1.69q-14.87 0-23.38-9.42t-8.52-26.27q0-16.84 9.78-27.42a32 32 0 0 1 24.51-10.58 32.37 32.37 0 0 1 14.72 3.32v-28.46l16.58-4v101.5zm0-54.06a17.6 17.6 0 0 0 -11.07-4.24q-10 0-15.33 6.07t-5.37 17.41q0 22.14 21.36 22.15a16.11 16.11 0 0 0 5.87-1.42c2.32-1 3.83-1.92 4.54-2.89z"/><path d="m505.55 81.74h-50.74q.46 8.49 5.83 13.2t14.46 4.7q11.34 0 17.25-5.9l6.43 12.7q-8.75 7.08-26.13 7.1-16.25 0-25.7-9.52t-9.45-26.58q0-16.78 10.38-27.2a33.87 33.87 0 0 1 24.9-10.41q15.45 0 24.81 9.22t9.35 23.48a46.28 46.28 0 0 1 -1.39 9.21zm-50.15-12.47h34.89q-1.73-15.58-17.24-15.59-14.2 0-17.65 15.59z"/><path d="m110 58.38-18.32-10.06-15.39 9.4-.19 9.6-7.5-4.94-10.2 6.25c.68 16.06.59 15.43.65 15.43l-25.05 16.87-4-26.93 27.9-15.91-10.48-7-19.34 10-5.4-36.93 33.26-12.76-23.68-11.4-32.26 10.06 7.18 34.71 10.82 8.39-8.2 3.89 5.4 26.27 7.55 7.08-5.4 3.28 4.18 20.32 16.94 17.89c-3.1-20.92-3-20.26-2.95-20.26v-.06l20-14.26c4.42-3.15 3.91-2.79 4-2.79l.26 6.32 8.7 7.29-.22-20 12-8.6c3.71-2.64 6.86-4.88 6.89-4.88l-.56 9.27 6.48 4.5 1.7-19.24z"/></g></svg>